
<svg viewBox="0 0 1080 3000" class="svgUnder" xmlns="http://www.w3.org/2000/svg" xmlns:xlink="http://www.w3.org/1999/xlink" version="1.1">
    <g fill="none" stroke="#2a9d8f" stroke-width="15">
        <circle r="181" cx="88" cy="1529"></circle>
        <circle r="10" cx="665" cy="480"></circle>
        <circle r="120" cx="190" cy="1955"></circle>
        <circle r="81" cx="970" cy="1119"></circle>
        <circle r="23" cx="1003" cy="22"></circle>
        <circle r="70" cx="513" cy="69"></circle>
        <circle r="100" cx="1034" cy="449"></circle>
        <circle r="67" cx="105" cy="2588"></circle>
        <circle r="151" cx="664" cy="2514"></circle>
        <circle r="28" cx="1014" cy="1617"></circle>
        <circle r="178" cx="49" cy="369"></circle>
        <circle r="123" cx="348" cy="2947"></circle>
    </g>
    <g fill="none" stroke="#ee4266" stroke-width="15">
        <circle r="131" cx="933" cy="1136"></circle>
        <circle r="73" cx="753" cy="1650"></circle>
        <circle r="118" cx="43" cy="1467"></circle>
        <circle r="87" cx="453" cy="1897"></circle>
        <circle r="105" cx="400" cy="660"></circle>
        <circle r="124" cx="417" cy="2618"></circle>
        <circle r="128" cx="1057" cy="2771"></circle>
        <circle r="148" cx="381" cy="2341"></circle>
    </g>
    <g fill="none" stroke="#264653" stroke-width="15">
        <circle r="181" cx="311" cy="2774"></circle>
        <circle r="10" cx="368" cy="1133"></circle>
        <circle r="21" cx="873" cy="1287"></circle>
        <circle r="77" cx="596" cy="2002"></circle>
        <circle r="106" cx="814" cy="2354"></circle>
        <circle r="127" cx="323" cy="471"></circle>
        <circle r="31" cx="433" cy="113"></circle>
        <circle r="21" cx="767" cy="2805"></circle>
        <circle r="142" cx="883" cy="862"></circle>
        <circle r="76" cx="463" cy="1648"></circle>
        <circle r="18" cx="994" cy="214"></circle>
    </g>
</svg>